<svg xmlns="http://www.w3.org/2000/svg"  viewBox="0 0 100 100" width="100px" height="100px"><path fill="#40a6dd" d="M77.071,55.5l3.113-21c0.43-2.903-1.907-5.5-4.95-5.5h-51.47c-3.043,0-5.38,2.597-4.95,5.5l3.113,21 l-3.113,21c-0.43,2.903,1.907,5.5,4.95,5.5h51.47c3.043,0,5.38-2.597,4.95-5.5L77.071,55.5z"/><path fill="#3070b7" d="M77.071,55.5l3.113-21c0.43-2.903-1.907-5.5-4.95-5.5h-51.47c-3.043,0-5.38,2.597-4.95,5.5l3.113,21 H77.071z"/><path fill="#e3e2e3" d="M32.82,64.345c0-0.644,0.12-1.079,0.358-1.304c0.238-0.224,0.667-0.336,1.284-0.336 c0.673,0,1.142,0.113,1.41,0.336c0.265,0.225,0.399,0.574,0.399,1.052c0,1.066,0.456,2.034,1.367,2.903 c0.912,0.869,2.293,1.304,4.145,1.304c3.759,0,5.637-1.936,5.637-5.807v-0.8c0-3.421-1.879-5.133-5.637-5.133 c-0.814,0-1.22-0.49-1.22-1.472c0-0.982,0.406-1.472,1.22-1.472c1.626,0,2.846-0.363,3.66-1.089c0.814-0.727,1.22-2.04,1.22-3.94 c0-3.267-1.571-4.902-4.712-4.902c-1.796,0-3.064,0.398-3.807,1.192c-0.744,0.792-1.116,1.733-1.116,2.818 c0,1.031-0.562,1.545-1.682,1.545c-0.758,0-1.256-0.127-1.494-0.379c-0.239-0.252-0.358-0.728-0.358-1.43 c0-0.701,0.133-1.424,0.399-2.168c0.267-0.743,0.694-1.485,1.284-2.229c0.589-0.743,1.478-1.353,2.671-1.83 c1.192-0.477,2.587-0.716,4.186-0.716c5.358,0,8.036,2.49,8.036,7.47c0,1.762-0.309,3.257-0.925,4.487 c-0.617,1.231-1.445,2.084-2.483,2.558c2.861,1.15,4.292,3.381,4.292,6.689v0.8c0,3.086-0.841,5.358-2.524,6.816 c-1.683,1.46-3.9,2.188-6.648,2.188c-2.889,0-5.106-0.735-6.648-2.209C33.591,67.815,32.82,66.168,32.82,64.345z M55.761,47.141 c0-0.593,0.254-1.087,0.762-1.483l3.899-4.62c0.366-0.366,0.734-0.55,1.101-0.55c0.396,0,0.755,0.112,1.081,0.339 c0.324,0.225,0.487,0.537,0.487,0.932v28.476c0,0.396-0.177,0.708-0.53,0.933c-0.353,0.227-0.769,0.339-1.249,0.339 c-0.481,0-0.897-0.112-1.25-0.339c-0.355-0.225-0.53-0.537-0.53-0.933V45.828l-1.568,2.33c-0.283,0.312-0.58,0.467-0.89,0.467 c-0.368,0-0.679-0.148-0.933-0.445C55.887,47.883,55.761,47.537,55.761,47.141z"/><path fill="#b1bdd0" d="M57.075,48.624c0.31,0,0.607-0.155,0.89-0.467l1.568-2.33V55.5h3.559V41.759 c0-0.395-0.162-0.706-0.487-0.932c-0.326-0.227-0.685-0.339-1.081-0.339c-0.367,0-0.735,0.184-1.101,0.55l-3.899,4.62 c-0.508,0.396-0.762,0.89-0.762,1.483c0,0.396,0.126,0.742,0.38,1.038C56.396,48.476,56.707,48.624,57.075,48.624z"/><path fill="#b1bdd0" d="M35.346,49.24c1.12,0,1.682-0.515,1.682-1.545c0-1.085,0.372-2.025,1.116-2.818 c0.743-0.794,2.011-1.192,3.807-1.192c3.141,0,4.712,1.635,4.712,4.902c0,1.9-0.406,3.213-1.22,3.94 c-0.814,0.725-2.034,1.089-3.66,1.089c-0.814,0-1.22,0.49-1.22,1.472c0,0.157,0.028,0.28,0.049,0.411h7.078 c-0.319-0.182-0.66-0.348-1.026-0.496c1.038-0.475,1.866-1.327,2.483-2.558c0.616-1.23,0.925-2.725,0.925-4.487 c0-4.98-2.678-7.47-8.036-7.47c-1.599,0-2.995,0.238-4.186,0.716c-1.193,0.477-2.082,1.088-2.671,1.83 c-0.59,0.744-1.018,1.487-1.284,2.229c-0.267,0.744-0.399,1.467-0.399,2.168c0,0.701,0.118,1.177,0.358,1.43 C34.09,49.113,34.588,49.24,35.346,49.24z"/><path fill="none" d="M57.075,48.624c0.31,0,0.607-0.155,0.89-0.467l1.568-2.33V55.5h3.559V41.759 c0-0.395-0.162-0.706-0.487-0.932c-0.326-0.227-0.685-0.339-1.081-0.339c-0.367,0-0.735,0.184-1.101,0.55l-3.899,4.62 c-0.508,0.396-0.762,0.89-0.762,1.483c0,0.396,0.126,0.742,0.38,1.038C56.396,48.476,56.707,48.624,57.075,48.624z"/><path fill="none" d="M35.346,49.24c1.12,0,1.682-0.515,1.682-1.545c0-1.085,0.372-2.025,1.116-2.818 c0.743-0.794,2.011-1.192,3.807-1.192c3.141,0,4.712,1.635,4.712,4.902c0,1.9-0.406,3.213-1.22,3.94 c-0.814,0.725-2.034,1.089-3.66,1.089c-0.814,0-1.22,0.49-1.22,1.472c0,0.157,0.028,0.28,0.049,0.411h7.078 c-0.319-0.182-0.66-0.348-1.026-0.496c1.038-0.475,1.866-1.327,2.483-2.558c0.616-1.23,0.925-2.725,0.925-4.487 c0-4.98-2.678-7.47-8.036-7.47c-1.599,0-2.995,0.238-4.186,0.716c-1.193,0.477-2.082,1.088-2.671,1.83 c-0.59,0.744-1.018,1.487-1.284,2.229c-0.267,0.744-0.399,1.467-0.399,2.168c0,0.701,0.118,1.177,0.358,1.43 C34.09,49.113,34.588,49.24,35.346,49.24z"/><path fill="none" stroke="#1f212b" stroke-linecap="round" stroke-miterlimit="10" d="M32.82,64.345 c0-0.644,0.12-1.079,0.358-1.304c0.238-0.224,0.667-0.336,1.284-0.336c0.673,0,1.142,0.113,1.41,0.336 c0.265,0.225,0.399,0.574,0.399,1.052c0,1.066,0.456,2.034,1.367,2.903c0.912,0.869,2.293,1.304,4.145,1.304 c3.759,0,5.637-1.936,5.637-5.807v-0.8c0-3.421-1.879-5.133-5.637-5.133c-0.814,0-1.22-0.49-1.22-1.472 c0-0.982,0.406-1.472,1.22-1.472c1.626,0,2.846-0.363,3.66-1.089c0.814-0.727,1.22-2.04,1.22-3.94 c0-3.267-1.571-4.902-4.712-4.902c-1.796,0-3.064,0.398-3.807,1.192c-0.744,0.792-1.116,1.733-1.116,2.818 c0,1.031-0.562,1.545-1.682,1.545c-0.758,0-1.256-0.127-1.494-0.379c-0.239-0.252-0.358-0.728-0.358-1.43 c0-0.701,0.133-1.424,0.399-2.168c0.267-0.743,0.694-1.485,1.284-2.229c0.589-0.743,1.478-1.353,2.671-1.83 c1.192-0.477,2.587-0.716,4.186-0.716c5.358,0,8.036,2.49,8.036,7.47c0,1.762-0.309,3.257-0.925,4.487 c-0.617,1.231-1.445,2.084-2.483,2.558c2.861,1.15,4.292,3.381,4.292,6.689v0.8c0,3.086-0.841,5.358-2.524,6.816 c-1.683,1.46-3.9,2.188-6.648,2.188c-2.889,0-5.106-0.735-6.648-2.209C33.591,67.815,32.82,66.168,32.82,64.345z"/><path fill="none" stroke="#1f212b" stroke-linecap="round" stroke-miterlimit="10" d="M55.761,47.141 c0-0.593,0.254-1.087,0.762-1.483l3.899-4.62c0.366-0.366,0.734-0.55,1.101-0.55c0.396,0,0.755,0.112,1.081,0.339 c0.324,0.225,0.487,0.537,0.487,0.932v28.476c0,0.396-0.177,0.708-0.53,0.933c-0.353,0.227-0.769,0.339-1.249,0.339 c-0.481,0-0.897-0.112-1.25-0.339c-0.355-0.225-0.53-0.537-0.53-0.933V45.828l-1.568,2.33c-0.283,0.312-0.58,0.467-0.89,0.467 c-0.368,0-0.679-0.148-0.933-0.445C55.887,47.883,55.761,47.537,55.761,47.141z"/><line x1="66.528" x2="77.071" y1="55.5" y2="55.5" fill="none" stroke="#1f212b" stroke-linecap="round" stroke-miterlimit="10"/><line x1="52.388" x2="56.079" y1="55.5" y2="55.5" fill="none" stroke="#1f212b" stroke-linecap="round" stroke-miterlimit="10"/><line x1="32.82" x2="36.73" y1="55.5" y2="55.5" fill="none" stroke="#1f212b" stroke-linecap="round" stroke-miterlimit="10"/><line x1="21.929" x2="29.989" y1="55.5" y2="55.5" fill="none" stroke="#1f212b" stroke-linecap="round" stroke-miterlimit="10"/><g><path fill="#e3e2e3" d="M71,17H28c-2.209,0-4,1.791-4,4v8h26.449H75v-8C75,18.791,73.209,17,71,17z M34,25.5 c-1.381,0-2.5-1.119-2.5-2.5c0-1.381,1.119-2.5,2.5-2.5s2.5,1.119,2.5,2.5C36.5,24.381,35.381,25.5,34,25.5z M65,25.5 c-1.381,0-2.5-1.119-2.5-2.5c0-1.381,1.119-2.5,2.5-2.5s2.5,1.119,2.5,2.5C67.5,24.381,66.381,25.5,65,25.5z"/><path fill="none" stroke="#1f212b" stroke-miterlimit="10" stroke-width="2" d="M77.071,55.5l3.113-21 c0.43-2.903-1.907-5.5-4.95-5.5h-51.47c-3.043,0-5.38,2.597-4.95,5.5l3.113,21l-3.113,21c-0.43,2.903,1.907,5.5,4.95,5.5h51.47 c3.043,0,5.38-2.597,4.95-5.5L77.071,55.5z"/><path fill="none" stroke="#1f212b" stroke-miterlimit="10" stroke-width="2" d="M75,29H50.449H24v-8c0-2.209,1.791-4,4-4h43 c2.209,0,4,1.791,4,4V29z"/><circle cx="34" cy="23" r="2.5" fill="none" stroke="#1f212b" stroke-linecap="round" stroke-miterlimit="10"/><circle cx="65" cy="23" r="2.5" fill="none" stroke="#1f212b" stroke-linecap="round" stroke-miterlimit="10"/></g></svg>